<svg width="18" height="16" viewBox="0 0 18 16" fill="none" xmlns="http://www.w3.org/2000/svg">
<path d="M15.2963 2.50792H14.097V1.44267C14.0759 1.19059 13.9608 0.955646 13.7746 0.784409C13.5884 0.613172 13.3447 0.518135 13.0917 0.518135C12.8388 0.518135 12.595 0.613172 12.4088 0.784409C12.2226 0.955646 12.1076 1.19059 12.0864 1.44267V2.50792H5.90653V1.44267C5.93407 1.29785 5.92931 1.14874 5.89259 1.00597C5.85587 0.863206 5.78809 0.730305 5.6941 0.616748C5.6001 0.503192 5.4822 0.41178 5.34881 0.349033C5.21542 0.286287 5.06982 0.253754 4.92241 0.253754C4.77499 0.253754 4.6294 0.286287 4.49601 0.349033C4.36262 0.41178 4.24471 0.503192 4.15072 0.616748C4.05672 0.730305 3.98894 0.863206 3.95222 1.00597C3.9155 1.14874 3.91074 1.29785 3.93828 1.44267V2.50792H2.70371C2.14241 2.50792 1.60409 2.7309 1.20719 3.1278C0.810288 3.5247 0.587311 4.06302 0.587311 4.62432V13.4638C0.587311 14.0251 0.810288 14.5634 1.20719 14.9604C1.60409 15.3573 2.14241 15.5802 2.70371 15.5802H15.2963C15.8576 15.5802 16.3959 15.3573 16.7928 14.9604C17.1897 14.5634 17.4127 14.0251 17.4127 13.4638V4.60316C17.4071 4.04553 17.1817 3.51264 16.7854 3.1203C16.3891 2.72796 15.854 2.50789 15.2963 2.50792ZM4.84833 13.8801H3.33158C3.213 13.8801 3.09557 13.8567 2.98602 13.8113C2.87646 13.7659 2.77691 13.6994 2.69306 13.6156C2.60921 13.5317 2.5427 13.4322 2.49732 13.3226C2.45194 13.2131 2.42858 13.0956 2.42858 12.9771C2.42858 12.8585 2.45194 12.7411 2.49732 12.6315C2.5427 12.5219 2.60921 12.4224 2.69306 12.3385C2.77691 12.2547 2.87646 12.1882 2.98602 12.1428C3.09557 12.0974 3.213 12.0741 3.33158 12.0741H4.84833C5.08782 12.0741 5.3175 12.1692 5.48685 12.3385C5.65619 12.5079 5.75133 12.7376 5.75133 12.9771C5.75133 13.2165 5.65619 13.4462 5.48685 13.6156C5.3175 13.7849 5.08782 13.8801 4.84833 13.8801ZM4.84833 11.0582H3.33158C3.09209 11.0582 2.86241 10.963 2.69306 10.7937C2.52372 10.6244 2.42858 10.3947 2.42858 10.1552C2.42858 9.9157 2.52372 9.68602 2.69306 9.51667C2.86241 9.34733 3.09209 9.25219 3.33158 9.25219H4.84833C5.08782 9.25219 5.3175 9.34733 5.48685 9.51667C5.65619 9.68602 5.75133 9.9157 5.75133 10.1552C5.75133 10.3947 5.65619 10.6244 5.48685 10.7937C5.3175 10.963 5.08782 11.0582 4.84833 11.0582ZM4.84833 8.23632H3.33158C3.09209 8.23632 2.86241 8.14118 2.69306 7.97183C2.52372 7.80249 2.42858 7.57281 2.42858 7.33332C2.42858 7.09383 2.52372 6.86415 2.69306 6.6948C2.86241 6.52546 3.09209 6.43032 3.33158 6.43032H4.84833C5.08782 6.43032 5.3175 6.52546 5.48685 6.6948C5.65619 6.86415 5.75133 7.09383 5.75133 7.33332C5.75133 7.57281 5.65619 7.80249 5.48685 7.97183C5.3175 8.14118 5.08782 8.23632 4.84833 8.23632ZM9.7866 13.8801H8.24163C8.12305 13.8801 8.00563 13.8567 7.89607 13.8113C7.78651 13.7659 7.68697 13.6994 7.60311 13.6156C7.51926 13.5317 7.45275 13.4322 7.40737 13.3226C7.36199 13.2131 7.33863 13.0956 7.33863 12.9771C7.33863 12.8585 7.36199 12.7411 7.40737 12.6315C7.45275 12.5219 7.51926 12.4224 7.60311 12.3385C7.68697 12.2547 7.78651 12.1882 7.89607 12.1428C8.00563 12.0974 8.12305 12.0741 8.24163 12.0741H9.75839C9.87697 12.0741 9.99439 12.0974 10.1039 12.1428C10.2135 12.1882 10.3131 12.2547 10.3969 12.3385C10.4808 12.4224 10.5473 12.5219 10.5926 12.6315C10.638 12.7411 10.6614 12.8585 10.6614 12.9771C10.6614 13.0956 10.638 13.2131 10.5926 13.3226C10.5473 13.4322 10.4808 13.5317 10.3969 13.6156C10.3131 13.6994 10.2135 13.7659 10.1039 13.8113C9.99439 13.8567 9.87697 13.8801 9.75839 13.8801H9.7866ZM9.7866 11.0582H8.24163C8.00214 11.0582 7.77246 10.963 7.60311 10.7937C7.43377 10.6244 7.33863 10.3947 7.33863 10.1552C7.33863 9.9157 7.43377 9.68602 7.60311 9.51667C7.77246 9.34733 8.00214 9.25219 8.24163 9.25219H9.75839C9.99788 9.25219 10.2276 9.34733 10.3969 9.51667C10.5662 9.68602 10.6614 9.9157 10.6614 10.1552C10.6614 10.3947 10.5662 10.6244 10.3969 10.7937C10.2276 10.963 9.99788 11.0582 9.75839 11.0582H9.7866ZM9.7866 8.23632H8.24163C8.00214 8.23632 7.77246 8.14118 7.60311 7.97183C7.43377 7.80249 7.33863 7.57281 7.33863 7.33332C7.33863 7.09383 7.43377 6.86415 7.60311 6.6948C7.77246 6.52546 8.00214 6.43032 8.24163 6.43032H9.75839C9.99788 6.43032 10.2276 6.52546 10.3969 6.6948C10.5662 6.86415 10.6614 7.09383 10.6614 7.33332C10.6614 7.57281 10.5662 7.80249 10.3969 7.97183C10.2276 8.14118 9.99788 8.23632 9.75839 8.23632H9.7866ZM14.7249 13.8801H13.1517C13.0331 13.8801 12.9157 13.8567 12.8061 13.8113C12.6966 13.7659 12.597 13.6994 12.5132 13.6156C12.4293 13.5317 12.3628 13.4322 12.3174 13.3226C12.272 13.2131 12.2487 13.0956 12.2487 12.9771C12.2487 12.8585 12.272 12.7411 12.3174 12.6315C12.3628 12.5219 12.4293 12.4224 12.5132 12.3385C12.597 12.2547 12.6966 12.1882 12.8061 12.1428C12.9157 12.0974 13.0331 12.0741 13.1517 12.0741H14.6684C14.9079 12.0741 15.1376 12.1692 15.307 12.3385C15.4763 12.5079 15.5714 12.7376 15.5714 12.9771C15.5714 13.2165 15.4763 13.4462 15.307 13.6156C15.1376 13.7849 14.9079 13.8801 14.6684 13.8801H14.7249ZM14.7249 11.0582H13.1517C12.9122 11.0582 12.6825 10.963 12.5132 10.7937C12.3438 10.6244 12.2487 10.3947 12.2487 10.1552C12.2487 9.9157 12.3438 9.68602 12.5132 9.51667C12.6825 9.34733 12.9122 9.25219 13.1517 9.25219H14.6684C14.9079 9.25219 15.1376 9.34733 15.307 9.51667C15.4763 9.68602 15.5714 9.9157 15.5714 10.1552C15.5714 10.3947 15.4763 10.6244 15.307 10.7937C15.1376 10.963 14.9079 11.0582 14.6684 11.0582H14.7249ZM14.7249 8.23632H13.1517C12.9122 8.23632 12.6825 8.14118 12.5132 7.97183C12.3438 7.80249 12.2487 7.57281 12.2487 7.33332C12.2487 7.09383 12.3438 6.86415 12.5132 6.6948C12.6825 6.52546 12.9122 6.43032 13.1517 6.43032H14.6684C14.9079 6.43032 15.1376 6.52546 15.307 6.6948C15.4763 6.86415 15.5714 7.09383 15.5714 7.33332C15.5714 7.57281 15.4763 7.80249 15.307 7.97183C15.1376 8.14118 14.9079 8.23632 14.6684 8.23632H14.7249Z" fill="#FF814B"/>
</svg>
