<svg width="36" height="36" viewBox="0 0 36 36" fill="none" xmlns="http://www.w3.org/2000/svg">
<path d="M25.1904 8.09705H10.8046C9.1879 8.09705 7.63745 8.73927 6.49429 9.88243C5.35113 11.0256 4.70891 12.576 4.70891 14.1927V21.8123C4.70891 23.429 5.35113 24.9794 6.49429 26.1226C7.63745 27.2657 9.1879 27.908 10.8046 27.908H31.2809V14.1927C31.2809 12.5769 30.6394 11.0272 29.4974 9.88422C28.3553 8.74121 26.8061 8.09839 25.1904 8.09705ZM22.5591 17.1745L20.6897 18.9931L21.1317 21.5634C21.1479 21.6663 21.1356 21.7717 21.096 21.8681C21.0565 21.9645 20.9912 22.0482 20.9074 22.11C20.8235 22.1718 20.7243 22.2095 20.6205 22.2188C20.5168 22.2281 20.4124 22.2087 20.3189 22.1628L18.0076 20.9487L15.7014 22.1628C15.6076 22.2115 15.502 22.233 15.3966 22.225C15.2912 22.217 15.1901 22.1798 15.1046 22.1176C15.0191 22.0553 14.9527 21.9705 14.9128 21.8726C14.8729 21.7747 14.861 21.6677 14.8785 21.5634L15.3204 18.9931L13.4511 17.1745C13.3752 17.1004 13.3214 17.0066 13.296 16.9036C13.2706 16.8006 13.2745 16.6925 13.3072 16.5916C13.34 16.4907 13.4003 16.4009 13.4814 16.3325C13.5625 16.264 13.6611 16.2196 13.7661 16.2043L16.3466 15.8284L17.4997 13.4917C17.5471 13.3977 17.6197 13.3187 17.7094 13.2634C17.7991 13.2082 17.9023 13.179 18.0076 13.179C18.1129 13.179 18.2162 13.2082 18.3059 13.2634C18.3956 13.3187 18.4682 13.3977 18.5156 13.4917L19.6687 15.8284L22.2492 16.2043C22.3538 16.2204 22.4518 16.2654 22.5322 16.3341C22.6126 16.4029 22.6723 16.4927 22.7045 16.5935C22.7366 16.6943 22.7401 16.802 22.7144 16.9047C22.6887 17.0073 22.6349 17.1008 22.5591 17.1745Z" fill="#FF814B"/>
</svg>
