<svg width="100" height="100" viewBox="0 0 100 100" fill="none" xmlns="http://www.w3.org/2000/svg">
<path d="M75.2222 84.9443H24.7636C23.4149 84.9442 22.0877 84.6067 20.9027 83.9625C19.7178 83.3184 18.7128 82.388 17.9793 81.2562C17.2458 80.1244 16.8071 78.8271 16.7031 77.4824C16.5991 76.1377 16.8332 74.7883 17.3839 73.5572L21.4759 64.3714C22.5217 62.0349 24.2212 60.0509 26.3694 58.6588C28.5176 57.2667 31.0228 56.526 33.5826 56.526H66.4033C68.9631 56.526 71.4683 57.2667 73.6165 58.6588C75.7647 60.0509 77.4642 62.0349 78.5099 64.3714L82.6161 73.5572C83.1673 74.7894 83.4013 76.1401 83.2966 77.4859C83.192 78.8318 82.752 80.13 82.0169 81.2622C81.2817 82.3943 80.2748 83.3244 79.088 83.9676C77.9011 84.6108 76.5721 84.9465 75.2222 84.9443Z" fill="white"/>
<path d="M49.9929 48.3703C58.4794 48.3703 65.3591 41.4906 65.3591 33.0041C65.3591 24.5176 58.4794 17.6379 49.9929 17.6379C41.5064 17.6379 34.6268 24.5176 34.6268 33.0041C34.6268 41.4906 41.5064 48.3703 49.9929 48.3703Z" fill="white"/>
</svg>
