<svg width="18" height="18" viewBox="0 0 18 18" fill="none" xmlns="http://www.w3.org/2000/svg">
<path d="M16.896 14.2497L13.3282 10.7105C14.1541 9.2777 14.4359 7.59521 14.1218 5.97154C13.8076 4.34787 12.9188 2.89184 11.6181 1.87046C10.3174 0.849082 8.69212 0.330808 7.04028 0.410676C5.38843 0.490544 3.82073 1.1632 2.62466 2.3053C1.42859 3.4474 0.684317 4.98239 0.528317 6.62879C0.372316 8.27519 0.815048 9.92265 1.77533 11.2691C2.7356 12.6155 4.14906 13.5706 5.75651 13.9593C7.36396 14.348 9.05766 14.1442 10.527 13.3853L14.156 16.9898C14.5193 17.3531 15.0121 17.5573 15.526 17.5573C16.0399 17.5573 16.5327 17.3531 16.896 16.9898C17.2594 16.6264 17.4635 16.1336 17.4635 15.6198C17.4635 15.1059 17.2594 14.6131 16.896 14.2497ZM2.57595 7.31802C2.57191 6.36475 2.8509 5.43173 3.37757 4.63714C3.90425 3.84256 4.65491 3.22218 5.53446 2.85458C6.41401 2.48697 7.38289 2.3887 8.31834 2.5722C9.25379 2.75569 10.1137 3.21271 10.7892 3.88535C11.4647 4.55799 11.9254 5.41599 12.1129 6.35065C12.3003 7.28532 12.2062 8.2546 11.8423 9.1357C11.4784 10.0168 10.8612 10.7701 10.0689 11.3001C9.27656 11.8302 8.34472 12.1131 7.39144 12.1131C6.11462 12.112 4.89041 11.6044 3.98757 10.7015C3.08472 9.79866 2.57703 8.57445 2.57595 7.29763V7.31802Z" fill="#4B88FF"/>
</svg>
