<svg width="36" height="36" viewBox="0 0 36 36" fill="none" xmlns="http://www.w3.org/2000/svg">
<path d="M27.08 30.5799H8.91491C8.42937 30.5799 7.95156 30.4584 7.52498 30.2265C7.09839 29.9946 6.7366 29.6597 6.47254 29.2522C6.20848 28.8448 6.05054 28.3777 6.0131 27.8937C5.97567 27.4096 6.05993 26.9238 6.25821 26.4806L7.73133 23.1737C8.10779 22.3325 8.71961 21.6183 9.49297 21.1172C10.2663 20.616 11.1682 20.3494 12.0897 20.3494H23.9052C24.8267 20.3494 25.7286 20.616 26.5019 21.1172C27.2753 21.6183 27.8871 22.3325 28.2636 23.1737L29.7418 26.4806C29.9402 26.9242 30.0245 27.4104 29.9868 27.8949C29.9491 28.3794 29.7907 28.8468 29.5261 29.2544C29.2614 29.662 28.8989 29.9968 28.4717 30.2283C28.0444 30.4599 27.566 30.5807 27.08 30.5799Z" fill="#DFD8D2"/>
<path d="M17.9975 17.4132C21.0526 17.4132 23.5293 14.9366 23.5293 11.8814C23.5293 8.82629 21.0526 6.34961 17.9975 6.34961C14.9423 6.34961 12.4656 8.82629 12.4656 11.8814C12.4656 14.9366 14.9423 17.4132 17.9975 17.4132Z" fill="#DFD8D2"/>
</svg>
